<?xml version="1.0" encoding="utf-8"?>
<!-- Generator: Adobe Illustrator 16.0.0, SVG Export Plug-In . SVG Version: 6.00 Build 0)  -->
<!DOCTYPE svg PUBLIC "-//W3C//DTD SVG 1.1//EN" "http://www.w3.org/Graphics/SVG/1.1/DTD/svg11.dtd">
<svg version="1.1"
	 id="svg3164" xmlns:dc="http://purl.org/dc/elements/1.1/" xmlns:cc="http://creativecommons.org/ns#" xmlns:rdf="http://www.w3.org/1999/02/22-rdf-syntax-ns#" xmlns:svg="http://www.w3.org/2000/svg"
	 xmlns="http://www.w3.org/2000/svg" xmlns:xlink="http://www.w3.org/1999/xlink" x="0px" y="0px" width="1024px" height="1024px"
	 viewBox="0 0 1024 1024" enable-background="new 0 0 1024 1024" xml:space="preserve">
<g id="g3174">
	<path id="path3220" fill="#FEFEFE" d="M0,512V0h512h512v512v512H512H0V512z"/>
	<path id="path3218" fill="#F3F3F3" d="M362,884.5V874h-96h-96v-10.5V853h117.5H405V725V597h-85.5H234v10.5V618h-10.5H213v-10.5V597
		h-11h-11v10.5V618h-10.5H170v-10.5V597h10.5H191v-11v-11h107h107v-10.5V554h10.5H426v-10.5V533h21.5H469v-11v-11h10.5H490v-10.5
		V490h-53.5H383v-10.5V469h-10.5H362v-85.5V298h-10.5H341v-21.5V255h10.5H362v-42.5V170h170.5H703v64v64h11h11v42.5V383h-11h-11v43
		v43h-10.5H682v10.5V490h-64h-64v10.5V511h10.5H575v11v11h32h32v10.5V554h11h11v10.5V575h10.5H682v11v11h10.5H703v10.5V618h-10.5
		H682v-10.5V597h-10.5H661v138.5V874h32h32v10.5V895H543.5H362V884.5z M639,799.5V725h-64h-64v-11v-11h-10.5H490v11v11h-32h-32v74.5
		V874h106.5H639V799.5z M469,415.5V405h-21.5H426v10.5V426h21.5H469V415.5z M575,415.5V405h-42.5H490v10.5V426h42.5H575V415.5z"/>
	<path id="path3216" fill="#E4E4E4" d="M405,725V597h-85.5H234v10.5V618h-10.5H213v-10.5V597h-11h-11v10.5V618h-10.5H170v-10.5V597
		h10.5H191v-11v-11h107h107v-10.5V554h10.5H426v-10.5V533h21.5H469v-11v-11h10.5H490v-10.5V490h-53.5H383v-10.5V469h-10.5H362v-85.5
		V298h-10.5H341v-21.5V255h10.5H362v-42.5V170h170.5H703v64v64h11h11v42.5V383h-11h-11v43v43h-10.5H682v10.5V490h-64h-64v10.5V511
		h10.5H575v11v11h32h32v10.5V554h11h11v10.5V575h10.5H682v11v11h10.5H703v10.5V618h-10.5H682v-10.5V597h-10.5H661v128v128h-11h-11
		v-64v-64h-64h-64v-11v-11h-10.5H490v11v11h-32h-32v64v64h-10.5H405V725z M469,415.5V405h-21.5H426v10.5V426h21.5H469V415.5z
		 M575,415.5V405h-42.5H490v10.5V426h42.5H575V415.5z"/>
	<path id="path3214" fill="#DCE992" d="M405,725V597h-85.5H234v10.5V618h-10.5H213v-10.5V597h-11h-11v10.5V618h-10.5H170v-10.5V597
		h10.5H191v-11v-11h107h107v-10.5V554h10.5H426v-10.5V533h21.5H469v-11v-11h10.5H490v-10.5V490h-53.5H383v-10.5V469h-10.5H362v-85.5
		V298h-10.5H341v-21.5V255h10.5H362v-42.5V170h170.5H703v64v64h11h11v42.5V383h-11h-11v43v43h-10.5H682v10.5V490h-64h-64v10.5V511
		h10.5H575v11v11h32h32v10.5V554h11h11v10.5V575h10.5H682v11v11h10.5H703v10.5V618h-10.5H682v-10.5V597h-10.5H661v128v128h-11h-11
		v-64v-64h-64h-64v-11v-11h-10.5H490v11v11h-32h-32v64v64h-10.5H405V725z M469,415.5V405h-21.5H426v10.5V426h21.5H469V415.5z
		 M597,415.5V405h-53.5H490v10.5V426h53.5H597V415.5z"/>
	<path id="path3212" fill="#BCD628" d="M405,725V597h-85.5H234v10.5V618h-10.5H213v-10.5V597h-11h-11v10.5V618h-10.5H170v-10.5V597
		h10.5H191v-11v-11h107h107v-10.5V554h10.5H426v-10.5V533h21.5H469v-11v-11h10.5H490v-10.5V490h-53.5H383v-10.5V469h-10.5H362v-85.5
		V298h-10.5H341v-21.5V255h10.5H362v-42.5V170h170.5H703v64v64h11h11v42.5V383h-11h-11v43v43h-10.5H682v10.5V490h-64h-64v10.5V511
		h10.5H575v11v11h32h32v10.5V554h11h11v10.5V575h10.5H682v11v11h10.5H703v10.5V618h-10.5H682v-10.5V597h-10.5H661v128v128h-11h-11
		v-64v-64h-64h-64v-11v-11h-10.5H490v11v11h-32h-32v64v64h-10.5H405V725z M469,415.5V405h-21.5H426v10.5V426h21.5H469V415.5z
		 M597,415.5V405h-53.5H490v10.5V426h53.5H597V415.5z M447,330v-11h-10.5H426v11v11h10.5H447V330z M554,330v-11h-10.5H533v11v11
		h10.5H554V330z"/>
	<path id="path3210" fill="#B0CF00" d="M405,725V597h-85.5H234v10.5V618h-10.5H213v-10.5V597h-11h-11v10.5V618h-10.5H170v-10.5V597
		h10.5H191v-11v-11h107h107v-10.5V554h10.5H426v-10.5V533h21.5H469v-11v-11h10.5H490v-10.5V490h-53.5H383v-10.5V469h-10.5H362v-85.5
		V298h-10.5H341v-21.5V255h10.5H362v-42.5V170h170.5H703v64v64h11h11v42.5V383h-11h-11v43v43h-10.5H682v10.5V490h-64h-64v10.5V511
		h10.5H575v11v11h32h32v10.5V554h11h11v10.5V575h10.5H682v11v11h10.5H703v10.5V618h-10.5H682v-10.5V597h-10.5H661v128v128h-11h-11
		v-64v-64h-64h-64v-11v-11h-10.5H490v11v11h-32h-32v64v64h-10.5H405V725z M469,415.5V405h-21.5H426v10.5V426h21.5H469V415.5z
		 M597,415.5V405h-53.5H490v10.5V426h53.5H597V415.5z M447,330v-11h-10.5H426v11v11h10.5H447V330z M575,330v-11h-21h-21v11v11h21h21
		V330z"/>
	<path id="path3208" fill="#63A900" d="M405,725V597h-85.5H234v10.5V618h-10.5H213v-10.5V597h-11h-11v10.5V618h-10.5H170v-10.5V597
		h10.5H191v-11v-11h107h107v-10.5V554h10.5H426v-10.5V533h32h32v-21.5V490h-53.5H383v-10.5V469h-10.5H362v-85.5V298h-10.5H341v-21.5
		V255h10.5H362v-42.5V170h170.5H703v64v64h11h11v42.5V383h-11h-11v43v43h-10.5H682v10.5V490h-64h-64v10.5V511h-10.5H533v11v11h53h53
		v10.5V554h11h11v10.5V575h10.5H682v11v11h10.5H703v10.5V618h-10.5H682v-10.5V597h-10.5H661v128v128h-11h-11v-64v-64h-64h-64v-11
		v-11h-10.5H490v11v11h-32h-32v64v64h-10.5H405V725z M469,415.5V405h-21.5H426v10.5V426h21.5H469V415.5z M597,415.5V405h-53.5H490
		v10.5V426h53.5H597V415.5z M405,330v-11h-11h-11v11v11h11h11V330z M447,330v-11h-10.5H426v11v11h10.5H447V330z M511,330v-11h-10.5
		H490v11v11h10.5H511V330z M575,330v-11h-21h-21v11v11h21h21V330z"/>
	<path id="path3206" fill="#589700" d="M405,725V597h-64h-64v-11v-11h64h64v-10.5V554h10.5H426v-10.5V533h32h32v10.5V554h21.5H533
		v-10.5V533h53h53v10.5V554h11h11v10.5V575h-21.5H618v11v11h10.5H639v10.5V618h11h11v117.5V853h-11h-11v-64v-64h-64h-64v-11v-11
		h-10.5H490v11v11h-32h-32v64v64h-10.5H405V725z M618,607.5V597h-10.5H597v10.5V618h10.5H618V607.5z M490,500.5V490h32h32v10.5V511
		h-32h-32V500.5z M682,426v-43h10.5H703v43v43h-10.5H682V426z M426,436.5V426h-10.5H405v-10.5V405h10.5H426v10.5V426h21.5H469v-10.5
		V405h10.5H490v10.5V426h53.5H597v10.5V447h-85.5H426V436.5z M383,351.5V341h-10.5H362v-21.5V298h128h128v-10.5V277h10.5H639v21v21
		h-10.5H618v21.5V362h-64h-64v-10.5V341h10.5H511v-11v-11h-21h-21v11v11h-11h-11v10.5V362h-32h-32V351.5z M405,330v-11h-11h-11v11
		v11h11h11V330z M447,330v-11h-10.5H426v11v11h10.5H447V330z M575,330v-11h-21h-21v11v11h21h21V330z M682,340.5V319h-10.5H661v-42.5
		V234h-11h-11v-10.5V213H511H383v10.5V234h43h43v10.5V255h10.5H490v-10.5V234h53.5H597v10.5V255h-53.5H490v11v11h-10.5H469v-11v-11
		h-53.5H362v-42.5V170h170.5H703v64v64h-10.5H682v10.5V319h10.5H703v21.5V362h-10.5H682V340.5z"/>
	<path id="path3204" fill="#569400" d="M405,725V597h-64h-64v-11v-11h64h64v-10.5V554h10.5H426v-10.5V533h32h32v10.5V554h21.5H533
		v-10.5V533h53h53v10.5V554h11h11v10.5V575h-21.5H618v11v11h10.5H639v10.5V618h11h11v117.5V853h-11h-11v-64v-64h-64h-64v-11v-11
		h-10.5H490v11v11h-32h-32v64v64h-10.5H405V725z M618,607.5V597h-10.5H597v10.5V618h10.5H618V607.5z M490,500.5V490h32h32v10.5V511
		h-32h-32V500.5z M682,426v-43h10.5H703v43v43h-10.5H682V426z M426,436.5V426h-10.5H405v-10.5V405h10.5H426v10.5V426h21.5H469v-10.5
		V405h10.5H490v10.5V426h53.5H597v10.5V447h-85.5H426V436.5z M383,351.5V341h-10.5H362v-21.5V298h128h128v-10.5V277h10.5H639v21v21
		h-10.5H618v11v11h-10.5H597v10.5V362h-53.5H490v-10.5V341h10.5H511v-11v-11h-21h-21v11v11h-11h-11v10.5V362h-32h-32V351.5z
		 M405,330v-11h-11h-11v11v11h11h11V330z M447,330v-11h-10.5H426v11v11h10.5H447V330z M575,330v-11h-21h-21v11v11h21h21V330z
		 M682,340.5V319h-10.5H661v-42.5V234h-11h-11v-10.5V213H511H383v10.5V234h43h43v10.5V255h10.5H490v-10.5V234h53.5H597v10.5V255
		h-53.5H490v11v11h-10.5H469v-11v-11h-53.5H362v-42.5V170h170.5H703v64v64h-10.5H682v10.5V319h10.5H703v21.5V362h-10.5H682V340.5z"
		/>
	<path id="path3202" fill="#4E4E4E" d="M405,725V597h-64h-64v-11v-11h64h64v-10.5V554h10.5H426v-10.5V533h32h32v10.5V554h32h32
		v-10.5V533h42.5H639v10.5V554h11h11v10.5V575h-21.5H618v11v11h10.5H639v10.5V618h11h11v117.5V853h-11h-11v-64v-64h-64h-64v-11v-11
		h-10.5H490v11v11h-32h-32v64v64h-10.5H405V725z M618,607.5V597h-10.5H597v10.5V618h10.5H618V607.5z M490,500.5V490h32h32v10.5V511
		h-32h-32V500.5z M426,436.5V426h21.5H469v-10.5V405h10.5H490v10.5V426h53.5H597v10.5V447h-85.5H426V436.5z M682,394v-11h10.5H703
		v11v11h-10.5H682V394z M383,351.5V341h-10.5H362v-21.5V298h138.5H639v10.5V319h-10.5H618v11v11h-10.5H597v10.5V362h-53.5H490v-10.5
		V341h10.5H511v-11v-11h-21h-21v11v11h-11h-11v10.5V362h-32h-32V351.5z M405,330v-11h-11h-11v11v11h11h11V330z M447,330v-11h-10.5
		H426v11v11h10.5H447V330z M575,330v-11h-21h-21v11v11h21h21V330z M682,351.5V341h10.5H703v10.5V362h-10.5H682V351.5z M661,276.5
		V234h-11h-11v-10.5V213H511H383v21v21h-10.5H362v-42.5V170h170.5H703v64v64h-10.5H682v10.5V319h-10.5H661V276.5z"/>
	<path id="path3200" fill="#4E8700" d="M405,725V597h-64h-64v-11v-11h64h64v-10.5V554h10.5H426v-10.5V533h32h32v10.5V554h-10.5H469
		v21.5V597h10.5H490v32v32h10.5H511v-32v-32h11h11v-11v-11h10.5H554v-21v-21h42.5H639v10.5V554h11h11v10.5V575h-21.5H618v11v11h10.5
		H639v10.5V618h11h11v117.5V853h-11h-11v-64v-64h-64h-64v-11v-11h-10.5H490v11v11h-32h-32v64v64h-10.5H405V725z M618,607.5V597
		h-10.5H597v10.5V618h10.5H618V607.5z M490,500.5V490h32h32v10.5V511h-32h-32V500.5z M426,436.5V426h21.5H469v-10.5V405h10.5H490
		v10.5V426h53.5H597v10.5V447h-85.5H426V436.5z M682,394v-11h10.5H703v11v11h-10.5H682V394z M383,351.5V341h-10.5H362v-21.5V298
		h138.5H639v10.5V319h-10.5H618v11v11h-10.5H597v10.5V362h-53.5H490v-10.5V341h10.5H511v-11v-11h-21h-21v11v11h-11h-11v10.5V362h-32
		h-32V351.5z M405,330v-11h-11h-11v11v11h11h11V330z M447,330v-11h-10.5H426v11v11h10.5H447V330z M575,330v-11h-21h-21v11v11h21h21
		V330z M682,351.5V341h10.5H703v10.5V362h-10.5H682V351.5z M661,276.5V234h-11h-11v-10.5V213H511H383v21v21h-10.5H362v-42.5V170
		h170.5H703v64v64h-10.5H682v10.5V319h-10.5H661V276.5z"/>
	<path id="path3198" fill="#4D8400" d="M405,725V597h-64h-64v-11v-11h64h64v-10.5V554h10.5H426v-10.5V533h32h32v10.5V554h-10.5H469
		v21.5V597h10.5H490v32v32h10.5H511v-32v-32h11h11v-11v-11h10.5H554v-21v-21h42.5H639v10.5V554h11h11v10.5V575h-21.5H618v11v11h10.5
		H639v10.5V618h11h11v117.5V853h-11h-11v-64v-64h-64h-64v-11v-11h-10.5H490v11v11h-32h-32v64v64h-10.5H405V725z M618,607.5V597
		h-10.5H597v10.5V618h10.5H618V607.5z M490,500.5V490h32h32v10.5V511h-32h-32V500.5z M426,436.5V426h21.5H469v-10.5V405h10.5H490
		v10.5V426h53.5H597v10.5V447h-85.5H426V436.5z M682,394v-11h10.5H703v11v11h-10.5H682V394z M383,351.5V341h11h11v-11v-11h-21.5H362
		v-10.5V298h128h128v10.5V319h-10.5H597v21.5V362h-53.5H490v-10.5V341h10.5H511v-11v-11h-21h-21v11v11h-11h-11v10.5V362h-32h-32
		V351.5z M447,330v-11h-10.5H426v11v11h10.5H447V330z M575,330v-11h-21h-21v11v11h21h21V330z M682,351.5V341h10.5H703v10.5V362
		h-10.5H682V351.5z M661,276.5V234h-11h-11v-10.5V213H511H383v21v21h-10.5H362v-42.5V170h170.5H703v64v64h-10.5H682v10.5V319h-10.5
		H661V276.5z"/>
	<path id="path3196" fill="#424242" d="M405,725V597h-64h-64v-11v-11h64h64v-10.5V554h10.5H426v-10.5V533h32h32v10.5V554h-10.5H469
		v21.5V597h10.5H490v32v32h10.5H511v-32v-32h11h11v-11v-11h10.5H554v-21v-21h42.5H639v10.5V554h11h11v10.5V575h-21.5H618v11v11h10.5
		H639v10.5V618h11h11v117.5V853h-11h-11v-64v-64h-64h-64v-11v-11h-10.5H490v11v11h-32h-32v64v64h-10.5H405V725z M618,607.5V597
		h-10.5H597v10.5V618h10.5H618V607.5z M426,436.5V426h21.5H469v-10.5V405h10.5H490v10.5V426h53.5H597v10.5V447h-85.5H426V436.5z
		 M405,330v-11h-21.5H362v-10.5V298h128h128v10.5V319h-42.5H533v11v11h-11h-11v-11v-11h-42.5H426v11v11h-10.5H405V330z M661,276.5
		V234h-11h-11v-10.5V213H511H383v21v21h-10.5H362v-42.5V170h170.5H703v64v64h-10.5H682v10.5V319h-10.5H661V276.5z"/>
	<path id="path3194" fill="#457600" d="M405,831.5V810h10.5H426v21.5V853h-10.5H405V831.5z M639,831.5V810h11h11v21.5V853h-11h-11
		V831.5z M405,671.5V597h-64h-64v-11v-11h64h64v-10.5V554h10.5H426v-10.5V533h32h32v10.5V554h-10.5H469v21.5V597h10.5H490v64v64h-32
		h-32v10.5V746h-10.5H405V671.5z M639,735.5V725h-64h-64v-64v-64h11h11v-11v-11h10.5H554v-21v-21h42.5H639v10.5V554h11h11v10.5V575
		h-21.5H618v11v11h10.5H639v10.5V618h11h11v64v64h-11h-11V735.5z M618,607.5V597h-10.5H597v10.5V618h10.5H618V607.5z M426,436.5V426
		h21.5H469v-10.5V405h10.5H490v10.5V426h53.5H597v10.5V447h-85.5H426V436.5z M405,330v-11h-21.5H362v-10.5V298h128h128v10.5V319
		h-42.5H533v11v11h-11h-11v-11v-11h-42.5H426v11v11h-10.5H405V330z M661,276.5V234h-11h-11v-10.5V213H511H383v21v21h-10.5H362v-42.5
		V170h170.5H703v64v64h-10.5H682v10.5V319h-10.5H661V276.5z"/>
	<path id="path3192" fill="#3D6900" d="M405,831.5V810h10.5H426v21.5V853h-10.5H405V831.5z M639,831.5V810h11h11v21.5V853h-11h-11
		V831.5z M405,671.5V597h-64h-64v-11v-11h64h64v-10.5V554h10.5H426v-10.5V533h32h32v10.5V554h-10.5H469v21.5V597h10.5H490v64v64h-32
		h-32v10.5V746h-10.5H405V671.5z M639,735.5V725h-64h-64v-64v-64h11h11v-11v-11h10.5H554v-21v-21h42.5H639v10.5V554h11h11v10.5V575
		h-21.5H618v11v11h10.5H639v10.5V618h11h11v64v64h-11h-11V735.5z M618,607.5V597h-10.5H597v10.5V618h10.5H618V607.5z M447,436.5V426
		h11h11v-10.5V405h10.5H490v10.5V426h53.5H597v10.5V447h-75h-75V436.5z M405,330v-11h-21.5H362v-10.5V298h128h128v10.5V319h-42.5
		H533v11v11h-11h-11v-11v-11h-42.5H426v11v11h-10.5H405V330z M661,276.5V234h-11h-11v-10.5V213H511H383v21v21h-10.5H362v-42.5V170
		h170.5H703v64v64h-10.5H682v10.5V319h-10.5H661V276.5z"/>
	<path id="path3190" fill="#343434" d="M405,831.5V810h10.5H426v21.5V853h-10.5H405V831.5z M639,831.5V810h11h11v21.5V853h-11h-11
		V831.5z M405,671.5V597h-64h-64v-11v-11h64h64v-10.5V554h10.5H426v-10.5V533h32h32v10.5V554h-10.5H469v21.5V597h10.5H490v64v64h-32
		h-32v10.5V746h-10.5H405V671.5z M639,735.5V725h-64h-64v-64v-64h11h11v-11v-11h10.5H554v-21v-21h42.5H639v10.5V554h11h11v10.5V575
		h-21.5H618v11v11h10.5H639v10.5V618h11h11v64v64h-11h-11V735.5z M618,607.5V597h-10.5H597v10.5V618h10.5H618V607.5z M447,436.5V426
		h11h11v-10.5V405h10.5H490v10.5V426h53.5H597v10.5V447h-75h-75V436.5z M405,330v-11h10.5H426v11v11h-10.5H405V330z M511,330v-11h11
		h11v11v11h-11h-11V330z M661,276.5V234h-11h-11v-10.5V213H511H383v21v21h-10.5H362v-42.5V170h170.5H703v64v64h-10.5H682v10.5V319
		h-10.5H661V276.5z"/>
	<path id="path3188" fill="#282828" d="M405,831.5V810h10.5H426v21.5V853h-10.5H405V831.5z M639,831.5V810h11h11v21.5V853h-11h-11
		V831.5z M405,661v-64h-64h-64v-11v-11h64h64v-10.5V554h10.5H426v-10.5V533h32h32v10.5V554h-10.5H469v21.5V597h10.5H490v64v64h-42.5
		H405V661z M511,661v-64h11h11v-11v-11h10.5H554v-21v-21h42.5H639v10.5V554h11h11v10.5V575h-21.5H618v11v11h10.5H639v10.5V618h11h11
		v53.5V725h-75h-75V661z M618,607.5V597h-10.5H597v10.5V618h10.5H618V607.5z M447,436.5V426h11h11v-10.5V405h10.5H490v10.5V426h53.5
		H597v10.5V447h-75h-75V436.5z M405,330v-11h10.5H426v11v11h-10.5H405V330z M511,330v-11h11h11v11v11h-11h-11V330z M661,276.5V234
		h-11h-11v-10.5V213H511H383v21v21h-10.5H362v-42.5V170h170.5H703v64v64h-10.5H682v10.5V319h-10.5H661V276.5z"/>
	<path id="path3186" fill="#332501" d="M405,831.5V810h10.5H426v21.5V853h-10.5H405V831.5z M639,831.5V810h11h11v21.5V853h-11h-11
		V831.5z M405,661v-64h-64h-64v-11v-11h64h64v-10.5V554h10.5H426v-10.5V533h32h32v10.5V554h-10.5H469v21.5V597h10.5H490v64v64h-42.5
		H405V661z M511,661v-64h11h11v-11v-11h10.5H554v-21v-21h42.5H639v10.5V554h11h11v10.5V575h-21.5H618v11v11h10.5H639v10.5V618h11h11
		v53.5V725h-75h-75V661z M618,607.5V597h-10.5H597v10.5V618h10.5H618V607.5z M447,436.5V426h11h11v-10.5V405h10.5H490v10.5V426h53.5
		H597v10.5V447h-75h-75V436.5z M661,276.5V234h-11h-11v-10.5V213H511H383v21v21h-10.5H362v-42.5V170h170.5H703v64v64h-10.5H682v10.5
		V319h-10.5H661V276.5z"/>
	<path id="path3184" fill="#302200" d="M405,831.5V810h10.5H426v21.5V853h-10.5H405V831.5z M639,831.5V810h11h11v21.5V853h-11h-11
		V831.5z M447,714v-11h11h11v-32v-32h-11h-11v-10.5V618h-10.5H426v-32v-32h10.5H447v-10.5V533h11h11v10.5V554h-11h-11v21.5V597h11
		h11v21v21h10.5H490v32v32h-10.5H469v11v11h-11h-11V714z M533,714v-11h-11h-11v-32v-32h11h11v-21v-21h10.5H554v-11v-11h10.5H575v-21
		v-21h32h32v10.5V554h-21h-21v21.5V597h-11h-11v10.5V618h-10.5H554v10.5V639h-10.5H533v32v32h10.5H554v11v11h-10.5H533V714z
		 M597,628.5V618h10.5H618v-10.5V597h10.5H639v10.5V618h11h11v10.5V639h-32h-32V628.5z M447,436.5V426h11h11v-10.5V405h10.5H490
		v10.5V426h53.5H597v10.5V447h-75h-75V436.5z M661,276.5V234h-11h-11v-10.5V213H511H383v21v21h-10.5H362v-42.5V170h170.5H703v64v64
		h-10.5H682v10.5V319h-10.5H661V276.5z"/>
	<path id="path3182" fill="#2D2000" d="M405,831.5V810h10.5H426v21.5V853h-10.5H405V831.5z M639,831.5V810h11h11v21.5V853h-11h-11
		V831.5z M447,714v-11h11h11v-32v-32h-11h-11v-10.5V618h-10.5H426v-32v-32h10.5H447v-10.5V533h11h11v10.5V554h-11h-11v32v32h11h11
		v10.5V639h10.5H490v32v32h-10.5H469v11v11h-11h-11V714z M533,714v-11h-11h-11v-32v-32h11h11v-10.5V618h10.5H554v-10.5V597h10.5H575
		v-21.5V554h11h11v-10.5V533h21h21v10.5V554h-21h-21v21.5V597h-11h-11v10.5V618h-10.5H554v10.5V639h-10.5H533v32v32h10.5H554v11v11
		h-10.5H533V714z M597,628.5V618h10.5H618v-10.5V597h10.5H639v10.5V618h11h11v10.5V639h-32h-32V628.5z M447,436.5V426h11h11v-10.5
		V405h10.5H490v10.5V426h53.5H597v10.5V447h-75h-75V436.5z M661,276.5V234h-11h-11v-10.5V213H511H383v21v21h-10.5H362v-42.5V170
		h170.5H703v64v64h-10.5H682v10.5V319h-10.5H661V276.5z"/>
	<path id="path3180" fill="#2B1E00" d="M405,831.5V810h10.5H426v21.5V853h-10.5H405V831.5z M639,831.5V810h11h11v21.5V853h-11h-11
		V831.5z M469,671v-32h-11h-11v-10.5V618h-10.5H426v-32v-32h10.5H447v32v32h11h11v10.5V639h10.5H490v32v32h-10.5H469V671z M511,671
		v-32h11h11v-10.5V618h10.5H554v-10.5V597h10.5H575v-21.5V554h11h11v-10.5V533h21h21v10.5V554h-21h-21v21.5V597h-11h-11v10.5V618
		h-10.5H554v10.5V639h-10.5H533v32v32h-11h-11V671z M618,607.5V597h10.5H639v10.5V618h-10.5H618V607.5z M447,436.5V426h11h11v-10.5
		V405h10.5H490v10.5V426h53.5H597v10.5V447h-75h-75V436.5z M661,276.5V234h-11h-11v-10.5V213H511H383v21v21h-10.5H362v-42.5V170
		h170.5H703v64v64h-10.5H682v10.5V319h-10.5H661V276.5z"/>
	<path id="path3178" fill="#291C00" d="M405,831.5V810h10.5H426v21.5V853h-10.5H405V831.5z M639,831.5V810h11h11v21.5V853h-11h-11
		V831.5z M469,671v-32h-11h-11v-10.5V618h-10.5H426v-32v-32h10.5H447v32v32h11h11v10.5V639h10.5H490v32v32h-10.5H469V671z M511,671
		v-32h11h11v-10.5V618h10.5H554v-10.5V597h10.5H575v10.5V618h-10.5H554v10.5V639h-10.5H533v32v32h-11h-11V671z M618,607.5V597h10.5
		H639v10.5V618h-10.5H618V607.5z M575,564.5V554h11h11v-10.5V533h21h21v10.5V554h-21h-21v10.5V575h-11h-11V564.5z M447,436.5V426h11
		h11v-10.5V405h10.5H490v10.5V426h53.5H597v10.5V447h-75h-75V436.5z M661,276.5V234h-11h-11v-10.5V213H511H383v21v21h-10.5H362
		v-42.5V170h170.5H703v64v64h-10.5H682v10.5V319h-10.5H661V276.5z"/>
	<path id="path3176" d="M405,831.5V810h10.5H426v21.5V853h-10.5H405V831.5z M639,831.5V810h11h11v21.5V853h-11h-11V831.5z
		 M447,436.5V426h11h11v-10.5V405h10.5H490v10.5V426h53.5H597v10.5V447h-75h-75V436.5z M661,276.5V234h-11h-11v-10.5V213H511H383v21
		v21h-10.5H362v-42.5V170h170.5H703v64v64h-10.5H682v10.5V319h-10.5H661V276.5z"/>
</g>
</svg>
